<svg width="1200" height="420" viewBox="0 0 1200 420" fill="none" xmlns="http://www.w3.org/2000/svg">
  <defs>
    <linearGradient id="bg" x1="0" y1="0" x2="1200" y2="420" gradientUnits="userSpaceOnUse">
      <stop stop-color="#0F172A"/>
      <stop offset="1" stop-color="#1E293B"/>
    </linearGradient>
    <linearGradient id="accent" x1="180" y1="84" x2="1020" y2="336" gradientUnits="userSpaceOnUse">
      <stop stop-color="#22C55E"/>
      <stop offset="1" stop-color="#38BDF8"/>
    </linearGradient>
  </defs>
  <rect width="1200" height="420" rx="32" fill="url(#bg)"/>
  <circle cx="160" cy="110" r="92" fill="#22C55E" fill-opacity="0.12"/>
  <circle cx="1040" cy="330" r="140" fill="#38BDF8" fill-opacity="0.10"/>
  <path d="M130 285C210 214 306 172 420 168C546 163 650 204 742 238C840 274 930 285 1040 246" stroke="url(#accent)" stroke-width="14" stroke-linecap="round"/>
  <path d="M165 270C243 205 328 173 420 170C515 167 602 193 692 228C795 268 905 282 1035 246" stroke="#E2E8F0" stroke-opacity="0.16" stroke-width="2" stroke-dasharray="8 10"/>
  <rect x="92" y="66" width="320" height="292" rx="24" fill="#0B1220" fill-opacity="0.82" stroke="#334155"/>
  <rect x="134" y="110" width="72" height="72" rx="18" fill="#22C55E"/>
  <path d="M156 137L165 128L177 140L194 120" stroke="white" stroke-width="8" stroke-linecap="round" stroke-linejoin="round"/>
  <text x="228" y="145" fill="white" font-family="Inter, Segoe UI, Arial, sans-serif" font-size="34" font-weight="700">Agent Marketplace</text>
  <text x="228" y="186" fill="#CBD5E1" font-family="Inter, Segoe UI, Arial, sans-serif" font-size="18">Browse, purchase, and manage AI agents</text>
  <rect x="134" y="214" width="246" height="18" rx="9" fill="#1E293B"/>
  <rect x="134" y="242" width="184" height="18" rx="9" fill="#1E293B"/>
  <rect x="134" y="270" width="214" height="18" rx="9" fill="#1E293B"/>
  <rect x="496" y="88" width="618" height="244" rx="28" fill="#0B1220" fill-opacity="0.52" stroke="#334155"/>
  <g transform="translate(540 132)">
    <rect width="132" height="160" rx="24" fill="#111827" stroke="#334155"/>
    <circle cx="66" cy="54" r="28" fill="#22C55E" fill-opacity="0.18"/>
    <path d="M54 54L63 63L79 45" stroke="#22C55E" stroke-width="7" stroke-linecap="round" stroke-linejoin="round"/>
    <text x="66" y="112" text-anchor="middle" fill="white" font-family="Inter, Segoe UI, Arial, sans-serif" font-size="18" font-weight="700">Secure</text>
    <text x="66" y="136" text-anchor="middle" fill="#94A3B8" font-family="Inter, Segoe UI, Arial, sans-serif" font-size="13">JWT access</text>
  </g>
  <g transform="translate(736 132)">
    <rect width="132" height="160" rx="24" fill="#111827" stroke="#334155"/>
    <circle cx="66" cy="54" r="28" fill="#38BDF8" fill-opacity="0.18"/>
    <path d="M52 56H80M52 66H72M52 46H76" stroke="#38BDF8" stroke-width="6" stroke-linecap="round"/>
    <text x="66" y="112" text-anchor="middle" fill="white" font-family="Inter, Segoe UI, Arial, sans-serif" font-size="18" font-weight="700">A2A</text>
    <text x="66" y="136" text-anchor="middle" fill="#94A3B8" font-family="Inter, Segoe UI, Arial, sans-serif" font-size="13">Messaging</text>
  </g>
  <g transform="translate(932 132)">
    <rect width="132" height="160" rx="24" fill="#111827" stroke="#334155"/>
    <circle cx="66" cy="54" r="28" fill="#A78BFA" fill-opacity="0.18"/>
    <path d="M54 64L66 44L78 64M58 69H74" stroke="#A78BFA" stroke-width="6" stroke-linecap="round" stroke-linejoin="round"/>
    <text x="66" y="112" text-anchor="middle" fill="white" font-family="Inter, Segoe UI, Arial, sans-serif" font-size="18" font-weight="700">Logs</text>
    <text x="66" y="136" text-anchor="middle" fill="#94A3B8" font-family="Inter, Segoe UI, Arial, sans-serif" font-size="13">Monitoring</text>
  </g>
</svg>
